<svg xmlns="http://www.w3.org/2000/svg" xmlns:xlink="http://www.w3.org/1999/xlink" data-name="Layer 1" width="1027.3499755859375" height="783.969970703125"><rect id="backgroundrect" width="100%" height="100%" x="0" y="0" fill="none" stroke="none"/><defs><linearGradient id="4f43e098-a778-42ef-b33c-7c47f8946c90" x1="0.5000226497650146" y1="1.0000336170196533" x2="0.5000226497650146" y2="-0.0000036315589113655733"><stop offset="0" stop-color="gray" stop-opacity="0.25"/><stop offset="0.54" stop-color="gray" stop-opacity="0.12"/><stop offset="1" stop-color="gray" stop-opacity="0.1"/></linearGradient></defs><title>Calculator</title><g class="currentLayer" style=""><title>Layer 1</title><path d="M584.1357581067085,124.5860601067543 c-64.72,-2.25 -126.36,-23.14 -185.23,-46 S281.74575810670854,30.406060106754296 218.57575810670852,18.286060106754306 c-40.63,-7.79 -87.09,-8.89 -119.83,12.89 c-31.5,21 -41.68,57.15 -47.16,90.73 c-4.11,25.26 -6.53,51.85 4.75,75.5 c7.83,16.42 21.74,30.22 31.36,45.94 C121.15575810670853,298.0660601067543 97.50575810670853,365.5860601067543 61.25575810670853,418.9760601067543 c-17,25.07 -36.74,49 -49.87,75.66 s-19.2,57.25 -7.72,84.47 c11.39,27 38.52,47.24 67.91,61.49 c59.68,29 130,37.23 198.61,41.92 c151.82,10.39 304.46,5.8900000000000015 456.68,1.3900000000000001 c56.34,-1.6700000000000006 112.92,-3.36 168.35,-12.07 c30.77,-4.83 62.55,-12.51 84.89,-31 c28.36,-23.53 35.39,-63.37 16.39,-92.88 c-31.88,-49.49 -120,-61.78 -142.31,-114.89 c-12.27,-29.24 0.3300000000000002,-61.8 18.15,-88.92 c38.24,-58.16 102.33,-109.19 105.71,-175.67 c2.3200000000000003,-45.66 -28.49,-91.39 -76.13,-113 c-49.94,-22.64 -119.18,-19.79 -156,17.69 C707.9357581067085,111.7160601067543 641.2557581067085,126.5860601067543 584.1357581067085,124.5860601067543 z" fill="#1e75cc" opacity="0.1" id="svg_1" class="" fill-opacity="1"/><ellipse cx="579.7899780273438" cy="726.5800170898438" rx="370.9800109863281" ry="27.579999923706055" fill="#1565c0" opacity="0.1" id="svg_2"/><path d="M292.9400003051758,637.2499995422363 s21,-3.36 33.6,11.49 c0,0 -9.24,7.28 -29.12,-2.8 z" fill="#1565c0" id="svg_3"/><path d="M290.6800003051758,636.9799995422363 s-13.39,16.52 -6.82,34.85 c0,0 10.92,-4.38 12.11,-26.64 z" fill="#1565c0" id="svg_4"/><path d="M278.6800003051758,609.8099995422364 s8.4,-15.4 42,6.16 c0,0 -4.48,10.36 -19.32,9.52 S282.58000030517576,617.9799995422363 278.6800003051758,609.8099995422364 z" fill="#1565c0" id="svg_5"/><path d="M276.4900003051758,608.6999995422364 s-17.43,-2 -19.12,37.91 c0,0 11.05,2.29 18.9,-10.33 S280.88000030517577,616.5799995422364 276.4900003051758,608.6999995422364 z" fill="#1565c0" id="svg_6"/><path d="M266.3400003051758,576.8799995422363 s9.8,-27.16 45.36,-7.84 c0,0 -8.12,24.92 -41.72,17.08 z" fill="#1565c0" id="svg_7"/><path d="M255.4100003051758,536.2799995422363 s18.49,-27.45 51.25,-2 c0,0 -11.48,25.76 -48.45,11.76 z" fill="#1565c0" id="svg_8"/><path d="M251.49000030517578,497.6299995422363 s21.57,-25.2 54.05,0 c0,0 -20.44,22.12 -54.05,6.44 z" fill="#1565c0" id="svg_9"/><path d="M248.13000030517577,460.1099995422363 s21.85,-26.32 52.93,-1.4 c0,0 -24.64,23.24 -52.93,7.5600000000000005 z" fill="#1565c0" id="svg_10"/><path d="M250.0900003051758,426.78999954223633 s23,-33.89 52.09,-10.92 c0,0 -24.64,29.12 -52.09,17.36 z" fill="#1565c0" id="svg_11" class=""/><path d="M255.4100003051758,387.8599995422363 s24.37,-33.6 52.65,-7.84 c0,0 -28.84,29.13 -52.65,14 z" fill="#1565c0" id="svg_12" class=""/><path d="M263.5400003051758,353.0699995422363 s28.84,-31.57 54,-19 c0,0 -30.06,33.53 -55.26,27.37 z" fill="#1565c0" id="svg_13"/><path d="M273.6200003051758,320.09999954223633 s33.32,-38.64 52.64,-25.76 c0,0 -24.52,30 -55,33 z" fill="#1565c0" id="svg_14"/><path d="M288.1700003051758,281.84999954223633 s29.13,-31.58 50.41,-23.74 c0,0 -24.92,32.76 -54.32,33.6 z" fill="#1565c0" id="svg_15"/><path d="M301.3400003051758,246.0699995422363 s32.2,-30.25 46.2,-24.93 c0,0 -23.24,33.61 -47.6,31.65 z" fill="#1565c0" id="svg_16"/><path d="M314.2200003051758,212.97999954223633 s27.72,-36.12 42.84,-33.32 c0,0 -16.8,32.2 -42.84,37 z" fill="#1565c0" id="svg_17"/><path d="M328.20000030517576,168.47999954223633 s24.5,-27.7 37.73,-27.63 c0,0 -19.34,37 -38.74,36.66 z" fill="#1565c0" id="svg_18"/><path d="M336.4800003051758,138.81999954223633 l23.66,-57.69 s1.19,52.15 -26.67,68.39 z" fill="#1565c0" id="svg_19"/><path d="M346.0900003051758,75.19999954223633 s3.92,-48.16 1.4,-52.08 c0,0 16.92,40 -1.57,73.36 z" fill="#1565c0" id="svg_20"/><path d="M265.4200003051758,576.2299995422363 s-24.54,-15.21 -40.43,22 c0,0 21.84,14.49 43.31,-12.51 z" fill="#1565c0" id="svg_21"/><path d="M254.68000030517578,534.7299995422363 s-30.1,-13.73 -44.71,25.12 c0,0 23.26,16 47.45,-15.3 z" fill="#1565c0" id="svg_22"/><path d="M250.0900003051758,499.9799995422363 s-21.56,-25.2 -54,0 c0,0 20.44,22.12 54,6.44 z" fill="#1565c0" id="svg_23"/><path d="M247.4000003051758,460.1099995422363 s-21.84,-26.32 -52.93,-1.4 c0,0 24.65,23.24 52.93,7.5600000000000005 z" fill="#1565c0" id="svg_24"/><path d="M249.48393974065783,427.7499995422363 s-15.32,-38 -48.62,-21.63 c0,0 18,33.65 47.27,27.92 z" fill="#1565c0" id="svg_25"/><path d="M257.3400003051758,387.6699995422363 s-15.22,-38.61 -49,-20.7 c0,0 20.68,35.39 47.5,26.67 z" fill="#1565c0" id="svg_26"/><path d="M266.7800003051758,353.26999954223635 s-6,-42.33 -34,-46.12 c0,0 5.93,44.64 30.22,53.75 z" fill="#1565c0" id="svg_27" class="" filter="" opacity="1" stroke="none"/><path d="M274.33000030517576,320.1699995422363 s-2.34,-51 -25.49,-52.77 c0,0 0.78,38.71 22.88,60 z" fill="#1565c0" id="svg_28"/><path d="M290.57000030517577,280.38999954223635 s-6.91,-42.41 -29,-47.6 c0,0 2.74,41.08 26.82,58 z" fill="#1565c0" id="svg_29" class=""/><path d="M303.96000030517575,246.36999954223631 s-0.24000000000000002,-44.17 -13.73,-50.67 c0,0 -8.38,40 9.82,56.31 z" fill="#1565c0" id="svg_30"/><path d="M315.2500003051758,212.52999954223634 s-1.8900000000000001,-45.49 -15.870000000000001,-51.9 c0,0 -4.79,36 13.77,54.88 z" fill="#1565c0" id="svg_31"/><path d="M330.1500003051758,172.09999954223633 s-0.09000000000000002,-37 -10.06,-45.67 c0,0 -9.93,40.53 4.85,53.12 z" fill="#1565c0" id="svg_32"/><path d="M335.3000003051758,136.97999954223633 l-9.7,-61.59 s-13.19,50.46 10.17,72.69 z" fill="#1565c0" id="svg_33"/><path d="M337.20000030517576,75.78999954223633 s-24.92,-41.4 -24.41,-46 c0,0 2.6500000000000004,43.39 34,65 z" fill="#1565c0" id="svg_34"/><path d="M340.1200003051758,63.559999542236326 S316.6000003051758,4.759999542236329 305.96000030517575,-0.020000457763671875 c0,0 33.6,17.08 36.12,61.88 z" fill="#1565c0" id="svg_35"/><path d="M327.0600003051758,177.85999954223632 l-1.6,-0.5 c19.85,-64.72 24.8,-106 13.94,-116.34 l1.1600000000000001,-1.22 C352.07000030517577,70.71999954223634 347.4000003051758,111.53999954223633 327.0600003051758,177.85999954223632 z" fill="#444053" id="svg_36"/><path d="M272.4100003051758,329.3699995422363 l-2.38,-0.8400000000000001 c2.1,-5.93 4.38,-11.95 6.76,-17.88 C297.51000030517577,258.9799995422363 315.14000030517576,210.97999954223633 326.45000030517576,174.08999954223634 l2.07,-1 C317.1900003051758,209.97999954223633 299.8700003051758,259.8799995422363 279.13000030517577,311.58999954223634 C276.76000030517577,317.4899995422363 274.5000003051758,323.46999954223634 272.4100003051758,329.3699995422363 z" fill="#444053" id="svg_37"/><path d="M322.4900003051758,685.6999995422364 c-0.32000000000000006,-0.36000000000000004 -32.5,-36.58 -54.92,-98.44 a364.42,364.42 0 0 1 -21.7,-112.77 c-1.53,-48.13 8.56,-101.88 25.87,-150.69 l1.8800000000000001,2.2 C234.7800003051758,435.5599995422363 250.21000030517575,529.4499995422364 270.6800003051758,585.9799995422363 c22.19,61.29 54,97.12 54.31,97.48 z" fill="#444053" id="svg_38"/><path d="M182.2800003051758,677.7999995422364 s-38.05,-2.29 -33.56,24.37 c0,0 -0.8900000000000001,4.71 3.38,6.85 c0,0 0.06000000000000001,-2 3.9,-1.31 a17.51,17.51 0 0 0 4.13,0.2 a8.620000000000001,8.620000000000001 0 0 0 5.06,-2.08 h0 s10.69,-4.42 14.85,-21.9 c0,0 3.08,-3.81 2.95,-4.79 l-6.42,2.74 s2.2,4.63 0.47000000000000003,8.48 c0,0 -0.21000000000000002,-8.31 -1.44,-8.12 c-0.25,0 -3.34,1.61 -3.34,1.61 s3.7800000000000002,8.07 0.93,13.93 c0,0 1.08,-9.94 -2.1,-13.35 l-4.52,2.64 s4.41,8.33 1.42,15.13 c0,0 0.7600000000000001,-10.43 -2.37,-14.49 l-4.1,3.2 s4.14,8.21 1.62,13.85 c0,0 -0.33000000000000007,-12.14 -2.51,-13.06 c0,0 -3.58,3.16 -4.13,4.46 c0,0 2.84,6 1.08,9.11 c0,0 -1.08,-8.09 -2,-8.13 c0,0 -3.5700000000000003,5.36 -3.94,9 a19.46,19.46 0 0 1 3.07,-9.54 a10.71,10.71 0 0 0 -5.46,2.83 s0.55,-3.79 6.34,-4.12 c0,0 3,-4.07 3.74,-4.32 c0,0 -5.76,-0.48000000000000004 -9.25,1.07 c0,0 3.07,-3.5700000000000003 10.31,-2 l4,-3.3 s-7.58,-1 -10.8,0.11000000000000001 c0,0 3.7,-3.16 11.89,-0.8600000000000001 l4.4,-2.63 s-6.46,-1.3900000000000001 -10.32,-0.8900000000000001 c0,0 4.07,-2.19 11.61,0.18000000000000002 l3.15,-1.4100000000000001 s-4.74,-0.93 -6.12,-1.08 s-1.47,-0.53 -1.47,-0.53 a16.39,16.39 0 0 1 8.9,1 S182.39000030517576,678.2199995422363 182.2800003051758,677.7999995422364 z" fill="#1565c0" id="svg_39"/><path d="M71.68000030517578,690.1699995422364 s-38,-2.29 -33.55,24.37 c0,0 -0.9,4.71 3.37,6.85 c0,0 0.07,-2 3.91,-1.31 a17,17 0 0 0 4.13,0.2 a8.56,8.56 0 0 0 5.05,-2.08 h0 s10.7,-4.42 14.86,-21.9 c0,0 3.07,-3.81 3,-4.79 l-6.42,2.74 s2.2,4.63 0.47000000000000003,8.48 c0,0 -0.21000000000000002,-8.31 -1.44,-8.12 c-0.25,0 -3.34,1.61 -3.34,1.61 s3.7800000000000002,8.07 0.93,13.93 c0,0 1.08,-9.94 -2.11,-13.35 l-4.52,2.64 s4.41,8.33 1.42,15.13 c0,0 0.77,-10.43 -2.37,-14.49 l-4.09,3.2 s4.14,8.21 1.62,13.85 c0,0 -0.33000000000000007,-12.14 -2.51,-13.06 c0,0 -3.58,3.16 -4.13,4.46 c0,0 2.84,6 1.08,9.11 c0,0 -1.08,-8.09 -2,-8.13 c0,0 -3.56,5.36 -3.94,9 a19.52,19.52 0 0 1 3.08,-9.54 a10.76,10.76 0 0 0 -5.47,2.83 s0.56,-3.79 6.35,-4.12 c0,0 3,-4.07 3.74,-4.3100000000000005 c0,0 -5.76,-0.49000000000000005 -9.25,1.06 c0,0 3.07,-3.5700000000000003 10.31,-2 l4,-3.3 s-7.58,-1 -10.8,0.11000000000000001 c0,0 3.7,-3.16 11.89,-0.8600000000000001 l4.4,-2.63 s-6.47,-1.3900000000000001 -10.32,-0.8900000000000001 c0,0 4.07,-2.19 11.61,0.18000000000000002 l3.15,-1.4100000000000001 s-4.74,-0.93 -6.13,-1.08 s-1.46,-0.53 -1.46,-0.53 a16.51,16.51 0 0 1 8.9,1 S71.7600003051758,690.5899995422363 71.68000030517578,690.1699995422364 z" fill="#1565c0" id="svg_40"/><path d="M133.32000030517577,719.2099995422363 s-38,-2.29 -33.56,24.37 c0,0 -0.8900000000000001,4.71 3.38,6.85 c0,0 0.07,-2 3.9,-1.31 a17.57,17.57 0 0 0 4.14,0.2 a8.620000000000001,8.620000000000001 0 0 0 5.05,-2.08 h0 s10.69,-4.42 14.85,-21.9 c0,0 3.08,-3.81 3,-4.79 l-6.42,2.74 s2.19,4.63 0.47000000000000003,8.48 c0,0 -0.21000000000000002,-8.31 -1.45,-8.12 c-0.25,0 -3.33,1.61 -3.33,1.61 s3.77,8.06 0.92,13.93 c0,0 1.08,-9.94 -2.1,-13.35 l-4.52,2.64 s4.41,8.33 1.42,15.13 c0,0 0.77,-10.43 -2.37,-14.49 l-4.1,3.2 s4.15,8.21 1.62,13.85 c0,0 -0.33000000000000007,-12.14 -2.5,-13.06 c0,0 -3.59,3.16 -4.13,4.46 c0,0 2.84,6 1.07,9.11 c0,0 -1.08,-8.09 -2,-8.13 c0,0 -3.5700000000000003,5.36 -3.94,9 a19.46,19.46 0 0 1 3.07,-9.54 a10.71,10.71 0 0 0 -5.46,2.83 s0.55,-3.79 6.35,-4.12 c0,0 2.94,-4.07 3.73,-4.32 c0,0 -5.76,-0.48000000000000004 -9.25,1.07 c0,0 3.08,-3.5700000000000003 10.31,-1.9500000000000002 l4,-3.3 s-7.58,-1 -10.8,0.11000000000000001 c0,0 3.71,-3.16 11.89,-0.8600000000000001 l4.41,-2.63 S114.5400003051758,723.4799995422363 110.68000030517578,723.9799995422363 c0,0 4.06,-2.19 11.61,0.18000000000000002 l3.14,-1.4100000000000001 s-4.73,-0.93 -6.12,-1.08 s-1.46,-0.53 -1.46,-0.53 a16.39,16.39 0 0 1 8.9,1 S133.43000030517578,719.6299995422363 133.32000030517577,719.2099995422363 z" fill="#1565c0" id="svg_41"/><ellipse cx="103.66000366210938" cy="753.22998046875" rx="26.93000030517578" ry="4.550000190734863" fill="#1565c0" opacity="0.1" id="svg_42"/><ellipse cx="957.8400268554688" cy="753.22998046875" rx="26.93000030517578" ry="4.550000190734863" fill="#1565c0" opacity="0.1" id="svg_43"/><ellipse cx="699.9500122070312" cy="779.4199829101562" rx="26.93000030517578" ry="4.550000190734863" fill="#1565c0" opacity="0.1" id="svg_44"/><ellipse cx="1000.4299926757812" cy="713.7899780273438" rx="26.93000030517578" ry="4.550000190734863" fill="#1565c0" opacity="0.1" id="svg_45"/><ellipse cx="156.07000732421875" cy="710.9500122070312" rx="26.93000030517578" ry="4.550000190734863" fill="#1565c0" opacity="0.1" id="svg_46"/><ellipse cx="45.439998626708984" cy="723.719970703125" rx="26.93000030517578" ry="4.550000190734863" fill="#1565c0" opacity="0.1" id="svg_47"/><rect x="303.3460388183594" y="78.52787780761719" width="431.3500061035156" height="641.3800048828125" rx="9.800000190734863" ry="9.800000190734863" fill="#569add" id="svg_48" class="" fill-opacity="1"/><rect x="342.2200012207031" y="134.8699951171875" width="357.7300109863281" height="126.08999633789062" rx="29.209999084472656" ry="29.209999084472656" opacity="0.1" id="svg_49" class=""/><rect x="344.5199890136719" y="137.3300018310547" width="352.30999755859375" height="121.94999694824219" rx="10.199999809265137" ry="10.199999809265137" fill="#e6e8ec" id="svg_50" class=""/><rect x="354.67999267578125" y="313.4800109863281" width="71.13999938964844" height="79.04000091552734" rx="10.789999961853027" ry="10.789999961853027" opacity="0.1" id="svg_51"/><rect x="441.6300048828125" y="313.4800109863281" width="71.13999938964844" height="79.04000091552734" rx="10.789999961853027" ry="10.789999961853027" opacity="0.1" id="svg_52"/><rect x="528.5800170898438" y="313.4800109863281" width="71.13999938964844" height="79.04000091552734" rx="10.789999961853027" ry="10.789999961853027" opacity="0.1" id="svg_53" class=""/><rect x="613.428466796875" y="314.692138671875" width="71.13999938964844" height="79.04000091552734" rx="10.789999961853027" ry="10.789999961853027" opacity="1" class="" id="svg_54" fill="#0f5faf" stroke="none" filter="" fill-opacity="1"/><rect x="612.2164306640625" y="404.99517822265625" width="71.13999938964844" height="79.04000091552734" rx="10.789999961853027" ry="10.789999961853027" opacity="0.1" class="" id="svg_55"/><rect x="354.67999267578125" y="400.42999267578125" width="71.13999938964844" height="79.04000091552734" rx="10.789999961853027" ry="10.789999961853027" opacity="0.1" id="svg_56"/><rect x="441.6300048828125" y="400.42999267578125" width="71.13999938964844" height="79.04000091552734" rx="10.789999961853027" ry="10.789999961853027" opacity="0.1" id="svg_57" class=""/><rect x="528.5800170898438" y="400.42999267578125" width="71.13999938964844" height="79.04000091552734" rx="10.789999961853027" ry="10.789999961853027" opacity="0.1" id="svg_58"/><rect x="354.67999267578125" y="496.4100036621094" width="71.13999938964844" height="79.04000091552734" rx="10.789999961853027" ry="10.789999961853027" opacity="0.1" id="svg_59"/><rect x="441.6300048828125" y="496.4100036621094" width="71.13999938964844" height="79.04000091552734" rx="10.789999961853027" ry="10.789999961853027" opacity="0.1" id="svg_60"/><rect x="528.5800170898438" y="496.4100036621094" width="71.13999938964844" height="79.04000091552734" rx="10.789999961853027" ry="10.789999961853027" opacity="0.1" id="svg_61"/><rect x="528.5800170898438" y="592.3900146484375" width="71.13999938964844" height="79.04000091552734" rx="10.789999961853027" ry="10.789999961853027" opacity="0.1" id="svg_62"/><rect x="354.67999267578125" y="592.3900146484375" width="158.08999633789062" height="79.04000091552734" rx="10.039999961853027" ry="10.039999961853027" opacity="0.1" id="svg_66"/><rect x="608.75" y="496.4100036621094" width="77.91000366210938" height="175.02999877929688" rx="11.65999984741211" ry="11.65999984741211" opacity="0.1" id="svg_67"/><rect x="649.8699951171875" y="237.97999572753906" width="31.139999389648438" height="3.369999885559082" fill="#1565c0" id="svg_68"/><rect x="604.280029296875" y="237.97999572753906" width="31.139999389648438" height="3.369999885559082" fill="#1565c0" id="svg_69"/><rect x="558.6799926757812" y="237.97999572753906" width="31.139999389648438" height="3.369999885559082" fill="#1565c0" id="svg_70"/><rect x="513.0900268554688" y="237.97999572753906" width="31.139999389648438" height="3.369999885559082" fill="#1565c0" id="svg_71"/><path d="M879.8700003051758,474.5399995422363 c3.21,-10.8 0,-21.6 0,-21.6 V442.7499995422363 s3.67,-19.92 -12.71,-32.7 l-10.86,-9.58 s-6.09,-5.23 -7.86,-5.5600000000000005 a8,8 0 0 0 -1,-0.15000000000000002 l-0.32000000000000006,-0.19000000000000003 a32.69,32.69 0 0 1 -2.38,-5 a4.63,4.63 0 0 0 3.87,-1.32 a5,5 0 0 0 0.91,-1.53 h0 c0.6300000000000001,-1.4100000000000001 0.7400000000000001,-3.12 1.27,-4.62 a11,11 0 0 1 2,-3.3200000000000003 c-0.11000000000000001,0.18000000000000002 -0.23,0.35000000000000003 -0.33000000000000007,0.54 c1.54,-1.92 3.55,-3.56 5,-5.58 a12.51,12.51 0 0 0 0.79,-1.25 c-0.06000000000000001,0.09000000000000002 -0.14,0.17 -0.21000000000000002,0.26 c2,-3.21 2.6100000000000003,-7.1 3.19,-10.85 a9.76,9.76 0 0 0 0.06000000000000001,-3.88 a14.13,14.13 0 0 0 -1.08,-2.46 c-2.36,-4.87 -2.3200000000000003,-11 -6.09,-14.89 c-2.84,-2.91 -7.14,-3.8 -11.19,-4.3 s-8.31,-0.79 -11.79,-2.91 a12.44,12.44 0 0 0 -3.19,-1.75 a2.62,2.62 0 0 0 -3.13,1.1600000000000001 a2.06,2.06 0 0 1 -0.42000000000000004,0.8500000000000001 a1.36,1.36 0 0 1 -1.2,0.07 l-5.39,-1.44 l0.06000000000000001,0.27 l-0.14,0 l0.2,0.8500000000000001 a0.46,0.46 0 0 1 0.51,0.29000000000000004 l-0.8700000000000001,1.34 a13.51,13.51 0 0 1 -4.86,-1 a1.13,1.13 0 0 0 0,0.26 l-0.08000000000000002,0 c-0.1,1.52 1.6300000000000001,2.51 2.16,3.94 a3,3 0 0 1 0,1.9300000000000002 a4.23,4.23 0 0 1 -1,1.54 c-1.9100000000000001,1.8900000000000001 -4.36,1.52 -6.5600000000000005,2.71 a1.42,1.42 0 0 0 -0.8,0.8900000000000001 a0.6500000000000001,0.6500000000000001 0 0 0 -0.07,0.49000000000000005 a1.1600000000000001,1.1600000000000001 0 0 0 0.45,0.56 a10,10 0 0 0 2.09,1.3 c-0.22000000000000003,0.2 -0.43000000000000005,0.4 -0.6300000000000001,0.6100000000000001 a24.1,24.1 0 0 0 8.33,39.32 c0.08000000000000002,0.42000000000000004 0.14,0.8500000000000001 0.2,1.3 c0,0.05000000000000001 0,0.08000000000000002 0,0.13 l0.06000000000000001,0.5800000000000001 l-7.26,3.09 a5.78,5.78 0 0 1 -5.2,-3.35 c-1.6900000000000002,-3.49 -7.66,0 -7.66,0 s-18.21,-1.36 -25,2 c0,0 -10.870000000000001,-4.5600000000000005 -12.4,-4.87 s-3.8200000000000003,-1.52 -4.890000000000001,-1.21 s-2.45,-2 -3.22,-1.83 s-1.07,-1.52 -3.52,-2.13 s-3.37,0.16000000000000003 -6.12,-2.58 s-25.11,-13.54 -25.11,-13.54 L706.4400003051758,356.9799995422363 l-10.71,-8.52 l-0.19000000000000003,0.35000000000000003 c-0.07,-0.25 -0.14,-0.51 -0.21000000000000002,-0.79 a102.59,102.59 0 0 0 -4,-12.49 c-0.6900000000000002,-1.6500000000000001 -1,-3.73 -1.9300000000000002,-2.63 c-0.5700000000000001,0.6600000000000001 -1.54,-0.79 -3,-1.77 a2.5300000000000002,2.5300000000000002 0 0 0 -3.77,1.1 h0 c-8.34,13.08 -11.33,14 -6.5,18.81 c4.3100000000000005,4.27 7.17,8 10.68,9.18 l0.42000000000000004,0.13 a0.45,0.45 0 0 1 -0.23,0 l20.36,24.34 s14.69,12.78 24.8,16.88 s9.33,5.33 9.33,5.33 s30.62,15.51 35.36,15.21 s3.83,31.79 1.84,37 s-5.2,42.59 -5.2,42.59 s-3.07,7.91 0.15000000000000002,13.38 c0,0 0.7100000000000001,10.48 0.07,13 c-2.79,4.3 -6.77,11.6 -7.42,19.11 c0,0.4 -0.08000000000000002,0.77 -0.12000000000000001,1.1600000000000001 a2.7,2.7 0 0 1 -0.7200000000000001,0.5900000000000001 l0.6800000000000002,-0.2 a38.5,38.5 0 0 1 -2,9.18 A37.31,37.31 0 0 0 761.6000003051757,570.9799995422363 v24.16 l-2,15 s-2.45,11.35 0,14 a6.48,6.48 0 0 1 1.34,4.66 a8.68,8.68 0 0 0 1.56,5.44 a4.07,4.07 0 0 1 1,3.49 c-0.81,2.63 1.2,30.62 1.2,30.62 s-0.5900000000000001,7.71 -1.4,8.12 s1.4,8.92 1.4,8.92 s-8.27,6.9 -6.16,10.55 l2.11,3.24 l-0.56,0.55 l-0.3400000000000001,0.35000000000000003 a3.26,3.26 0 0 0 -2.11,-0.4 a80.62,80.62 0 0 1 -8.32,7.41 c-3.73,2.6900000000000004 -13.88,6.59 -13.88,6.59 l-8,0.6500000000000001 h-0.15000000000000002 s-3.83,-0.36000000000000004 -1.6800000000000002,5.57 s21.37,4.11 21.37,4.11 l11.22,-1.77 s20,0.1 25.73,-1.17 c2.39,-0.53 3,-1.81 2.8,-3.1 l0,0 l-0.06000000000000001,-0.06000000000000001 a8,8 0 0 0 -1.6400000000000001,-3.35 a1.28,1.28 0 0 0 -0.14,-0.18000000000000002 l0.36000000000000004,-4.1 c8.49,-4.890000000000001 -2.4,-14.51 -2.4,-14.51 s3.73,-8.11 5.640000000000001,-10.74 s1.9100000000000001,-41.38 1.9100000000000001,-41.38 s1,-14 -1.6300000000000001,-17.24 a5.83,5.83 0 0 1 2.8600000000000003,-5.27 c1.8900000000000001,-1.29 7.6,-19.06 12.08,-33.81 l2.8200000000000003,17.38 s-0.6100000000000001,8.32 1.22,10.75 a4.14,4.14 0 0 1 0.7600000000000001,3.24 a14.6,14.6 0 0 0 0.41000000000000003,7 a4.63,4.63 0 0 0 1.49,2.5 c1.6300000000000001,0.81 1.73,3.7 2.34,4.3100000000000005 s4.39,-0.8600000000000001 4.59,1.37 a50.49,50.49 0 0 1 0,5.88 l1.23,36.1 s-2,3 -2.45,11 c-0.17,3.41 -0.81,5.35 -1.47,6.46 a3.31,3.31 0 0 0 0.30000000000000004,3.88 l0.35000000000000003,0.41000000000000003 l-1.51,1.1600000000000001 a3.33,3.33 0 0 0 -0.9400000000000001,4.11 a3.23,3.23 0 0 0 -0.93,3.5 a2.44,2.44 0 0 0 0.26,0.5700000000000001 a5.68,5.68 0 0 0 -3.05,1.51 a25,25 0 0 1 -5.39,5.42 a103.71,103.71 0 0 0 -8.59,7.36 a12.34,12.34 0 0 1 -5,4 a8.25,8.25 0 0 1 -1.51,0.45 c-4,0.8200000000000001 -2.75,5 0.51,5.69 s14.08,4 22.5,2.07 c0,0 2.5,1 6.17,-0.8600000000000001 S829.6800003051758,728.4499995422364 829.6800003051758,728.4499995422364 s4.59,0 5.21,-1.82 a7.14,7.14 0 0 0 0.26,-1.78 l0.13,-0.13 l-0.12000000000000001,-0.11000000000000001 a24.26,24.26 0 0 0 -0.31000000000000005,-4.07 c-0.12000000000000001,-0.7000000000000001 -0.25,-1.32 -0.37000000000000005,-1.82 c-0.39000000000000007,-1.52 -1.12,-3.49 -1.4300000000000002,-4.32 a1.53,1.53 0 0 0 0.14,-0.21000000000000002 c1.75,-3 -1.1600000000000001,-10.12 -1.1600000000000001,-10.12 A19.4,19.4 0 0 1 835.4800003051757,699.9799995422363 c1.6300000000000001,-1.22 5.92,-32.86 5.92,-32.86 s-0.21000000000000002,-8.11 2,-11.76 s-3.06,-25.75 -3.06,-25.75 s-2.25,-5.07 -1.4300000000000002,-6.9 s-0.8200000000000001,-8.52 -0.8200000000000001,-8.52 v-8 a8.84,8.84 0 0 0 -0.47000000000000003,-2.8 c-0.6300000000000001,-1.8800000000000001 -1.56,-5.49 -0.55,-8.08 c1.4300000000000002,-3.6500000000000004 4.69,-26.16 4.69,-26.16 s-2.55,-9.93 1.19,-17.84 a15.54,15.54 0 0 1 1,-1.83 c2.77,-4.35 1.94,-12.08 0.5700000000000001,-18.31 c-0.2,-1 -0.43000000000000005,-1.9 -0.6600000000000001,-2.77 c-0.09000000000000002,-0.38000000000000006 -0.19000000000000003,-0.7400000000000001 -0.29000000000000004,-1.1 l0.44000000000000006,-0.18000000000000002 s0,-0.5900000000000001 0.14,-1.6 a11.24,11.24 0 0 0 7.36,-5.09 s9.34,-10.5 17.6,-14.91 s8.88,-10.8 8.88,-10.8 c-1.22,-2.13 2.19,-10.8 2.19,-10.8 zm-32.55,-79.63 h0 zm5.61,93.63 l-8.84,10.25 l0,-0.06000000000000001 c-2.3,-3.2 2.14,-10.35 2.14,-10.35 L853.5800003051758,471.9799995422363 c-0.06000000000000001,2.1 -0.32000000000000006,4 -1,4.83 c-2,2.74 3.68,7.3100000000000005 3.68,7.3100000000000005 C853.2300003051757,484.1299995422363 852.9300003051758,488.5399995422363 852.9300003051758,488.5399995422363 z" fill="url(#4f43e098-a778-42ef-b33c-7c47f8946c90)" id="svg_72"/><path d="M697.2900003051758,354.14999954223634 l-4.83,9.37 a19,19 0 0 1 -4.49,-0.9400000000000001 a17,17 0 0 1 -10.55,-9.12 c-4.3100000000000005,-9.52 2.8200000000000003,-15.67 6.14,-17.49 s6.41,-3.89 8.9,2.08 a103.26,103.26 0 0 1 3.91,12.41 C696.9500003051758,352.64999954223634 697.2900003051758,354.14999954223634 697.2900003051758,354.14999954223634 z" fill="#cc818c" id="svg_73"/><path d="M850.6800003051758,402.88999954223635 l-7.71,11.48 s-36.43,17.38 -29.47,-3 c3.06,-9 3.42,-15.57 2.87,-20.12 c0,-0.05000000000000001 0,-0.08000000000000002 0,-0.13 c-0.7200000000000001,-5.69 -2.8600000000000003,-8.16 -2.8600000000000003,-8.16 s35.51,-18.18 30.22,-5.75 a17.12,17.12 0 0 0 -1.25,8.18 a27.88,27.88 0 0 0 3.8200000000000003,11.35 A37.71,37.71 0 0 0 850.6800003051758,402.88999954223635 z" fill="#cc818c" id="svg_74"/><path d="M839.5900003051757,630.2999995422364 s5.24,22 3,25.59 s-2,11.69 -2,11.69 s-4.23,31.44 -5.84,32.64 a19.21,19.21 0 0 0 -3.43,4 s2.88,7.12 1.15,10.06 a2.44,2.44 0 0 1 -1.15,1 c-2.7,1.1400000000000001 -12.68,-3.92 -18.36,-7 a3.24,3.24 0 0 1 -0.5800000000000001,-5.28 a3.3,3.3 0 0 1 0.92,-4.08 l1.5,-1.1600000000000001 l-0.35000000000000003,-0.41000000000000003 a3.31,3.31 0 0 1 -0.30000000000000004,-3.8600000000000003 c0.6500000000000001,-1.09 1.28,-3 1.45,-6.41 c0.41000000000000003,-7.86 2.42,-10.88 2.42,-10.88 l-1.21,-35.88 a49.78,49.78 0 0 0 0,-5.84 c-0.2,-2.21 -3.93,-0.7500000000000001 -4.53,-1.36 s-0.7100000000000001,-3.47 -2.3200000000000003,-4.28 a4.59,4.59 0 0 1 -1.46,-2.49 a14.39,14.39 0 0 1 -0.41000000000000003,-7 a4.13,4.13 0 0 0 -0.7500000000000001,-3.22 c-1.81,-2.42 -1.21,-10.67 -1.21,-10.67 l-2.7800000000000002,-17.28 c-4.43,14.66 -10.06,32.32 -11.93,33.6 a5.8100000000000005,5.8100000000000005 0 0 0 -2.8200000000000003,5.23 c2.62,3.23 1.61,17.14 1.61,17.14 s0,38.48 -1.8900000000000001,41.11 S782.7700003051758,695.9799995422363 782.7700003051758,695.9799995422363 s10.8,9.61 2.3,14.46 l-0.09000000000000002,0 c-8.67,4.84 -26.6,-8.66 -26.6,-8.66 l1.87,-1.87 l0.55,-0.55 L758.6800003051758,696.1999995422364 c-2.08,-3.63 6.08,-10.48 6.08,-10.48 s-2.18,-8.47 -1.3800000000000001,-8.870000000000001 s1.3800000000000001,-8.06 1.3800000000000001,-8.06 s-2,-27.81 -1.18,-30.43 a4.1,4.1 0 0 0 -1,-3.47 a8.63,8.63 0 0 1 -1.54,-5.4 a6.42,6.42 0 0 0 -1.33,-4.63 c-2.42,-2.62 0,-13.9 0,-13.9 l2,-14.92 V572.3499995422363 A37.77,37.77 0 0 1 764.2400003051757,558.9799995422363 a40,40 0 0 0 2.2,-10.73 c0.6600000000000001,-7.640000000000001 4.77,-15.06 7.53,-19.29 c1.46,-2.24 2.55,-3.58 2.55,-3.58 l64.48,-2.52 s1,2.87 2.08,6.86 c0.22000000000000003,0.8700000000000001 0.44000000000000006,1.79 0.6500000000000001,2.75 c1.35,6.2 2.16,13.88 -0.5700000000000001,18.2 a16.93,16.93 0 0 0 -1,1.82 c-3.6900000000000004,7.86 -1.17,17.73 -1.17,17.73 s-3.22,22.36 -4.63,26 c-1,2.5700000000000003 -0.08000000000000002,6.16 0.55,8 a9.1,9.1 0 0 1 0.45,2.79 V614.9799995422363 s1.62,6.65 0.81,8.47 S839.5900003051757,630.2999995422364 839.5900003051757,630.2999995422364 z" fill="#0f5faf" id="svg_75" class="" fill-opacity="1"/><path d="M842.5600003051758,551.3099995422364 a15.3,15.3 0 0 0 -1,1.81 l-3.63,-0.2 c0.35000000000000003,-1.87 -2.12,-19.4 -2.12,-19.4 l7.3100000000000005,-0.41000000000000003 C844.4700003051757,539.2999995422364 845.2900003051758,546.9799995422363 842.5600003051758,551.3099995422364 z" opacity="0.1" id="svg_76"/><path d="M843.1600003051758,550.6999995422364 a16.93,16.93 0 0 0 -1,1.82 l-3.63,-0.21000000000000002 c0.35000000000000003,-1.86 -2.12,-19.4 -2.12,-19.4 l7.3100000000000005,-0.41000000000000003 C845.0800003051758,538.6999995422364 845.8900003051758,546.3799995422363 843.1600003051758,550.6999995422364 z" fill="#0e447a" id="svg_77" class="" fill-opacity="1"/><path d="M832.4800003051757,714.3199995422364 a2.44,2.44 0 0 1 -1.15,1 c-2.7,1.1400000000000001 -12.68,-3.92 -18.36,-7 a3.27,3.27 0 0 1 -1.51,-1.8 c3.24,-0.5900000000000001 5.36,3 5.36,3 a4.78,4.78 0 0 1 6.65,1.61 c2.77,4.08 8.71,2.36 8.71,2.36 z" opacity="0.1" id="svg_79"/><path d="M834.1500003051758,726.6699995422364 c-0.6000000000000001,1.82 -5.14,1.82 -5.14,1.82 s-8.11,2.3200000000000003 -11.74,4.13 s-6.09,0.8600000000000001 -6.09,0.8600000000000001 c-8.31,1.9100000000000001 -19,-1.4100000000000001 -22.22,-2.07 s-4.48,-4.83 -0.5,-5.640000000000001 a8.06,8.06 0 0 0 1.49,-0.46 a12.16,12.16 0 0 0 5,-4 a102.27,102.27 0 0 1 8.49,-7.3100000000000005 a24.82,24.82 0 0 0 5.32,-5.39 c4.74,-4.18 8.11,1.56 8.11,1.56 a4.78,4.78 0 0 1 6.65,1.62 c2.77,4.08 8.71,2.35 8.71,2.35 s1.07,2.73 1.57,4.69 c0.12000000000000001,0.5 0.25,1.12 0.37000000000000005,1.82 C834.4400003051758,722.6799995422364 834.6100003051757,725.3099995422364 834.1500003051758,726.6699995422364 z" fill="#ff748f" id="svg_80"/><circle cx="820.2899780273438" cy="713.3800048828125" r="0.550000011920929" fill="#575988" id="svg_81"/><circle cx="815.5599975585938" cy="717.8099975585938" r="0.550000011920929" fill="#575988" id="svg_82"/><circle cx="810.75" cy="721.7899780273438" r="0.550000011920929" fill="#575988" id="svg_83"/><circle cx="813.239990234375" cy="720.010009765625" r="0.550000011920929" fill="#575988" id="svg_84"/><circle cx="818.030029296875" cy="715.4600219726562" r="0.550000011920929" fill="#575988" id="svg_85"/><path d="M834.1500003051758,726.6699995422364 c-0.6000000000000001,1.82 -5.14,1.82 -5.14,1.82 s-8.11,2.3200000000000003 -11.74,4.13 s-6.09,0.8600000000000001 -6.09,0.8600000000000001 c-8.31,1.9100000000000001 -19,-1.4100000000000001 -22.22,-2.07 s-4.48,-4.83 -0.5,-5.640000000000001 a8.06,8.06 0 0 0 1.49,-0.46 a38.68,38.68 0 0 0 10.9,2.07 c8.21,0.35000000000000003 14.71,0 14.71,0 l8.31,-2.67 a13.89,13.89 0 0 1 5.14,-1.86 a13.44,13.44 0 0 0 5.11,-2.22 C834.4400003051758,722.6799995422364 834.6100003051757,725.3099995422364 834.1500003051758,726.6699995422364 z" fill="#dce6f2" id="svg_86"/><path d="M813.4700003051757,731.8799995422363 a6.88,6.88 0 0 1 -1.3800000000000001,-0.13 l0.12000000000000001,-0.5900000000000001 a8.8,8.8 0 0 0 5,-0.7000000000000001 c0.7400000000000001,-0.29000000000000004 1.48,-0.6400000000000001 2.2,-1 s1.73,-0.81 2.63,-1.1400000000000001 l0.8200000000000001,-0.28 c0.45,-0.16000000000000003 0.91,-0.31000000000000005 1.35,-0.5 c0.25,-0.1 0.5,-0.22000000000000003 0.7400000000000001,-0.3400000000000001 a8.51,8.51 0 0 1 1.86,-0.7100000000000001 a9.18,9.18 0 0 1 1,-0.13 a8.9,8.9 0 0 0 0.92,-0.11000000000000001 a8.65,8.65 0 0 0 1.75,-0.6500000000000001 a8.46,8.46 0 0 1 1.8800000000000001,-0.7000000000000001 l0.44000000000000006,-0.07 a2.15,2.15 0 0 0 1.3,-0.48000000000000004 l0.45,0.41000000000000003 a2.71,2.71 0 0 1 -1.6500000000000001,0.6700000000000002 l-0.42000000000000004,0.07 a8.09,8.09 0 0 0 -1.75,0.6500000000000001 a9.17,9.17 0 0 1 -1.8800000000000001,0.6900000000000002 a6.69,6.69 0 0 1 -1,0.12000000000000001 a8.92,8.92 0 0 0 -0.9400000000000001,0.12000000000000001 a8,8 0 0 0 -1.73,0.6700000000000002 l-0.7600000000000001,0.35000000000000003 c-0.46,0.19000000000000003 -0.9400000000000001,0.35000000000000003 -1.4,0.51 l-0.8,0.28 c-0.8800000000000001,0.32000000000000006 -1.7400000000000002,0.7300000000000001 -2.58,1.12 s-1.48,0.7000000000000001 -2.24,1 A10.91,10.91 0 0 1 813.4700003051757,731.8799995422363 z" fill="#575988" opacity="0.5" id="svg_87"/><path d="M815.4100003051758,631.7599995422363 s4.18,-6 11.34,-6 s10.22,-0.81 10.22,-0.81 s-4.58,2.72 -7.75,3.07 S815.4100003051758,631.7599995422363 815.4100003051758,631.7599995422363 z" opacity="0.1" id="svg_88"/><path d="M817.8300003051758,633.1699995422364 s3.7800000000000002,-2.62 5.94,-2.72 s4,-0.30000000000000004 4,-0.30000000000000004 a11.56,11.56 0 0 1 -3.3200000000000003,1.61 C822.6800003051758,632.2599995422363 817.8300003051758,633.1699995422364 817.8300003051758,633.1699995422364 z" opacity="0.1" id="svg_89"/><path d="M818.6800003051758,634.9799995422363 s5.69,0.45 5.74,2 " opacity="0.1" id="svg_90"/><path d="M765.6100003051757,549.9799995422363 c0.30000000000000004,0.05000000000000001 5.39,-5.29 5.74,-7.4 a5.17,5.17 0 0 1 2.21,-3.26 s3.2800000000000002,1.31 0.36000000000000004,5.33 S765.6100003051757,549.9799995422363 765.6100003051757,549.9799995422363 z" opacity="0.1" id="svg_91"/><path d="M843.6800003051758,377.1899995422363 c-1.1600000000000001,2.74 -2.18,3 -2,5.61 a20,20 0 0 1 -4.61,3.63 c-3.6,2.14 -7.52,6.33 -12,6.33 a23.91,23.91 0 0 1 -8.77,-1.6600000000000001 c-0.7200000000000001,-5.69 -2.8600000000000003,-8.16 -2.8600000000000003,-8.16 S848.9600003051758,364.7599995422363 843.6800003051758,377.1899995422363 z" opacity="0.1" id="svg_92"/><path d="M849.1200003051758,367.51999954223635 a24,24 0 1 1 -24,-24 A24,24 0 0 1 849.1200003051758,367.51999954223635 z" fill="#cc818c" id="svg_93"/><path d="M850.6800003051758,402.88999954223635 l-7.71,11.48 s-36.43,17.38 -29.47,-3 c3.06,-9 3.42,-15.57 2.87,-20.12 l0.06000000000000001,0 a19.27,19.27 0 0 1 0.7300000000000001,4.63 c0.11000000000000001,3.14 0.19000000000000003,7.11 8,8.42 c13,2.18 19.94,-5.94 21.16,-7.53 A37.71,37.71 0 0 0 850.6800003051758,402.88999954223635 z" opacity="0.1" id="svg_94"/><path d="M697.2900003051758,354.14999954223634 l-4.83,9.37 a19,19 0 0 1 -4.49,-0.9400000000000001 l-0.42000000000000004,-0.5 c2,0.7600000000000001 8.61,-11.79 8.61,-11.79 l0.21000000000000002,0.17 C696.9500003051758,352.64999954223634 697.2900003051758,354.14999954223634 697.2900003051758,354.14999954223634 z" opacity="0.1" id="svg_95"/><path d="M843.0800003051758,529.7499995422363 c-15.56,6.76 -69.38,1 -69.38,1 a7.37,7.37 0 0 0 0.27,-1.7600000000000002 c1.46,-2.24 2.55,-3.58 2.55,-3.58 l64.48,-2.52 S842.0500003051758,525.7599995422363 843.0800003051758,529.7499995422363 z" opacity="0.1" id="svg_96"/><path d="M816.9960608696938,391.8099995422363 l-7.18,3.07 a5.69,5.69 0 0 1 -5.13,-3.33 c-1.6700000000000004,-3.47 -7.5600000000000005,0 -7.5600000000000005,0 s-18,-1.36 -24.64,2 c0,0 -10.73,-4.54 -12.24,-4.84 s-3.7800000000000002,-1.51 -4.84,-1.21 s-2.41,-2 -3.17,-1.81 s-1.06,-1.51 -3.48,-2.12 s-3.3200000000000003,0.15000000000000005 -6,-2.5700000000000003 s-24.79,-13.45 -24.79,-13.45 l-10,-8.16 l-10.58,-8.46 s-6.65,12.54 -8.620000000000001,11.78 l20.1,24.19 s14.51,12.69 24.49,16.77 s9.22,5.29 9.22,5.29 s30.23,15.42 34.91,15.12 S781.2860608696938,455.6299995422363 779.2860608696938,460.7699995422363 s-5.13,42.32 -5.13,42.32 s-3,7.86 0.15000000000000005,13.3 c0,0 0.7500000000000002,11.19 0,13.15 c0,0 54.15,5.79 69.52,-1.06 c0,0 2.27,-25.09 0,-28.26 S845.9460608696937,489.9799995422363 845.9460608696937,489.9799995422363 l9.67,-21.61 l23.58,-23.73 s3.62,-19.8 -12.55,-32.49 l-10.73,-9.53 s-6,-5.19 -7.76,-5.52 s-1.11,0 -1.11,0 s-7,10.21 -21.36,7.79 c-7.78,-1.31 -7.86,-5.28 -8,-8.41 A19.6,19.6 0 0 0 816.9960608696938,391.8099995422363 z" fill="#d3daea" id="svg_97" class="" fill-opacity="1"/><path d="M845.9400003051758,473.1699995422364 S812.6800003051758,474.5299995422363 806.0400003051758,484.9799995422363 c0,0 8.620000000000001,-4.09 16.32,-2.88 S845.9400003051758,473.1699995422364 845.9400003051758,473.1699995422364 z" opacity="0.1" id="svg_98" class=""/><path d="M809.2100003051758,509.58999954223634 s15.72,1.06 19.05,-2.27 s3.34,-5.29 3.34,-5.29 z" opacity="0.1" id="svg_99"/><path d="M849.1200003051758,441.1199995422363 s-13.31,15.72 2.87,22.52 z" opacity="0.1" id="svg_100"/><path d="M770.3700003051758,410.7499995422363 s4.84,9.870000000000001 7.26,10.52 z" opacity="0.1" id="svg_101"/><path d="M754.0500003051758,406.5099995422363 s12.09,10.89 14.36,11.94 C768.4100003051758,418.44999954223636 755.8600003051757,406.5099995422363 754.0500003051758,406.5099995422363 z" opacity="0.1" id="svg_102"/><path d="M802.2600003051758,396.08999954223634 s-11.64,17.38 -4.08,28 C798.1800003051758,424.0499995422363 793.9500003051758,411.4999995422363 802.2600003051758,396.08999954223634 z" opacity="0.1" id="svg_103"/><path d="M831.6000003051757,527.7299995422363 l-3.56,3.35 l-0.5,0.46 l-4.12,3.9 c-0.29000000000000004,0.22000000000000003 -0.5800000000000001,0.44000000000000006 -0.8800000000000001,0.6400000000000001 c-16.77,12 -20.13,-6.24 -20.13,-6.24 s-7.4,4.84 -8.46,0.91 s17.23,-9.52 20,-9.22 a3.59,3.59 0 0 0 0.7300000000000001,0 a11.44,11.44 0 0 0 3.7600000000000002,-1.33 l0.81,-0.43000000000000005 a32,32 0 0 0 2.71,-1.71 z" fill="#cc818c" id="svg_104"/><path d="M849.6800003051758,367.51999954223635 A24,24 0 0 1 837.9800003051757,388.1799995422363 a13.64,13.64 0 0 1 -0.8800000000000001,-1.75 c-0.8600000000000001,-2 -1.3900000000000001,-4.16 -2.26,-6.17 a19,19 0 0 0 -4,-5.88 a2.55,2.55 0 0 0 -1.07,-0.7400000000000001 a2.88,2.88 0 0 0 -2.2,0.6100000000000001 a10.11,10.11 0 0 1 -3.35,1.47 a3.56,3.56 0 0 1 -3.36,-1 c-0.9400000000000001,-1.12 -0.81,-2.7600000000000002 -0.54,-4.19 c0.5900000000000001,-3.13 1.57,-6.21 1.58,-9.39 s-1.21,-6.6 -4,-8.18 c-2.44,-1.3900000000000001 -5.47,-1 -8.18,-1.78 a8.92,8.92 0 0 1 -1.23,-0.42000000000000004 A24,24 0 0 1 849.6800003051758,367.51999954223635 z" opacity="0.1" id="svg_105"/><path d="M806.8500003051757,346.9199995422363 c-0.43000000000000005,0.23 -0.91,0.6500000000000001 -0.78,1.13 a1.1400000000000001,1.1400000000000001 0 0 0 0.44000000000000006,0.56 a10.49,10.49 0 0 0 3.8,1.9500000000000002 c2.71,0.7400000000000001 5.75,0.39000000000000007 8.19,1.78 c2.7600000000000002,1.57 4,5 4,8.18 s-1,6.26 -1.57,9.38 c-0.27,1.44 -0.41000000000000003,3.08 0.53,4.2 a3.59,3.59 0 0 0 3.36,1 a10,10 0 0 0 3.35,-1.46 a2.91,2.91 0 0 1 2.21,-0.6200000000000001 a2.72,2.72 0 0 1 1.07,0.7400000000000001 a19,19 0 0 1 4,5.890000000000001 c0.8800000000000001,2 1.4,4.15 2.26,6.17 a10,10 0 0 0 4,5 c1.92,1.06 4.58,1 6.06,-0.6400000000000001 s1.36,-3.89 2.06,-5.86 c1.2,-3.43 4.55,-5.58 6.65,-8.54 c2.35,-3.33 3,-7.51 3.64,-11.54 a9.48,9.48 0 0 0 0.06000000000000001,-3.8600000000000003 a13.86,13.86 0 0 0 -1.06,-2.44 c-2.34,-4.84 -2.29,-10.93 -6,-14.79 c-2.8,-2.9 -7.05,-3.7800000000000002 -11.05,-4.28 s-8.2,-0.78 -11.63,-2.89 a12.65,12.65 0 0 0 -3.15,-1.7400000000000002 a2.58,2.58 0 0 0 -3.1,1.1600000000000001 a2.06,2.06 0 0 1 -0.41000000000000003,0.8400000000000001 a1.33,1.33 0 0 1 -1.19,0.07 l-5.32,-1.4300000000000002 l0.6100000000000001,2.68 a13.32,13.32 0 0 1 -5.65,-1 c-0.1,1.52 1.61,2.5 2.14,3.92 a3.63,3.63 0 0 1 -1,3.68 C811.4400003051758,346.09999954223633 809.0300003051758,345.7299995422363 806.8500003051757,346.9199995422363 z" fill="#2e6296" id="svg_106" class="selected" fill-opacity="1"/><path d="M785.2900003051758,708.0399995422363 l-0.22000000000000003,2.41 l-0.09000000000000002,0 c-8.67,4.84 -26.6,-8.66 -26.6,-8.66 l1.87,-1.87 a3.26,3.26 0 0 1 0.8200000000000001,2.5300000000000002 l3.66,0.2 l4.38,4.73 s11.85,1.37 15.06,0.6100000000000001 z" opacity="0.1" id="svg_107"/><path d="M783.7700003051758,721.1799995422364 c-5.640000000000001,1.26 -25.39,1.17 -25.39,1.17 l-11.08,1.75 s-19,1.82 -21.11,-4.08 s1.6600000000000001,-5.53 1.6600000000000001,-5.53 l0.15000000000000002,0 l7.91,-0.6400000000000001 s10,-3.88 13.71,-6.55 a79.6,79.6 0 0 0 8.21,-7.36 s3.3,-0.6400000000000001 3.24,3.18 l3.66,0.2 l4.38,4.74 s11.85,1.37 15.06,0.6000000000000001 h1.12 l-0.51,5.85 l0.14,0.17 C785.6800003051758,715.5999995422363 788.8100003051758,720.0599995422364 783.7700003051758,721.1799995422364 z" fill="#ff748f" id="svg_108"/><circle cx="763.3200073242188" cy="706.52001953125" r="0.550000011920929" fill="#575988" id="svg_109"/><circle cx="749.1099853515625" cy="712.6799926757812" r="0.550000011920929" fill="#575988" id="svg_110"/><circle cx="741.7899780273438" cy="714.9000244140625" r="0.550000011920929" fill="#575988" id="svg_111"/><circle cx="752.8400268554688" cy="711.5" r="0.550000011920929" fill="#575988" id="svg_112"/><circle cx="745.4400024414062" cy="713.7899780273438" r="0.550000011920929" fill="#575988" id="svg_113"/><circle cx="756.6099853515625" cy="709.75" r="0.550000011920929" fill="#575988" id="svg_114"/><circle cx="760.3400268554688" cy="708.1300048828125" r="0.550000011920929" fill="#575988" id="svg_115"/><path d="M783.7700003051758,721.1799995422364 c-5.640000000000001,1.26 -25.39,1.17 -25.39,1.17 l-11.08,1.75 s-19,1.82 -21.11,-4.08 s1.6600000000000001,-5.53 1.6600000000000001,-5.53 l0.15000000000000002,0 c1.21,1.57 3.64,3.35 8.41,3.44 l13.66,0.55 l14.15,-1 s13.26,-0.39000000000000007 15.42,-0.8500000000000001 a31.59,31.59 0 0 0 5.28,-1.94 C785.6800003051758,715.5999995422363 788.8100003051758,720.0599995422364 783.7700003051758,721.1799995422364 z" fill="#dce6f2" id="svg_116"/><path d="M748.3700003051758,722.7699995422363 a8.19,8.19 0 0 1 -2.24,-0.28 l0.16000000000000003,-0.5800000000000001 a11.1,11.1 0 0 0 5.62,-0.25 c0.6700000000000002,-0.18000000000000002 1.33,-0.37000000000000005 2,-0.5700000000000001 a31.6,31.6 0 0 1 3.6900000000000004,-0.93 A30.57,30.57 0 0 1 763.6800003051758,719.9799995422363 l0.43000000000000005,0 a93.62,93.62 0 0 0 18.14,-0.81 a6.79,6.79 0 0 0 3.88,-1.56 l0.43000000000000005,0.43000000000000005 a7.36,7.36 0 0 1 -4.21,1.73 a94.09,94.09 0 0 1 -18.26,0.81 l-0.44000000000000006,0 a30.09,30.09 0 0 0 -6,0.18000000000000002 a29.79,29.79 0 0 0 -3.6100000000000003,0.91 c-0.6700000000000002,0.2 -1.34,0.4 -2,0.5700000000000001 A15.2,15.2 0 0 1 748.3700003051758,722.7699995422363 z" fill="#575988" opacity="0.5" id="svg_117"/><path d="M831.6000003051757,527.7299995422363 l-3.56,3.35 l-8.84,-11.32 a32,32 0 0 0 2.71,-1.71 z" opacity="0.1" id="svg_118"/><path d="M871.6800003051758,434.9799995422363 l7,9.67 v10.13 s3.17,10.73 0,21.46 l0.3400000000000001,9.37 s-3.37,8.61 -2.16,10.73 c0,0 -0.6000000000000001,6.35 -8.76,10.73 S850.6800003051758,521.8299995422364 850.6800003051758,521.8299995422364 s-3.48,6.65 -12.85,5.14 l-8.92,3.7800000000000002 l-10.27,-13.15 l13.9,-7.5600000000000005 s4.84,-6.49 7.71,-6.19 l11.79,-13.76 s0.30000000000000004,-4.38 3.3200000000000003,-4.38 c0,0 -5.59,-4.53 -3.63,-7.25 s0.31000000000000005,-14.82 0.31000000000000005,-14.82 z" fill="#d3daea" id="svg_119" class="" fill-opacity="1"/><path d="M858.6800003051758,479.05999954223637 s15.870000000000001,-0.30000000000000004 17.83,3.7800000000000002 S863.4700003051757,476.7899995422363 858.6800003051758,479.05999954223637 z" opacity="0.1" id="svg_120"/><path d="M827.6100003051757,530.7499995422363 a4.15,4.15 0 0 1 -0.07,0.79 a5.34,5.34 0 0 1 -5,4.54 h-0.28 a5.34,5.34 0 0 1 -5.34,-5.34 a5.2,5.2 0 0 1 0.30000000000000004,-1.73 c-2.52,-2 -2.66,-5.68 -2.59,-7.5 a11.44,11.44 0 0 0 3.7600000000000002,-1.33 a24.88,24.88 0 0 0 2.63,5.37 a5.61,5.61 0 0 1 1.24,-0.15000000000000002 A5.35,5.35 0 0 1 827.6100003051757,530.7499995422363 z" opacity="0.1" id="svg_121"/><path d="M818.8700003051758,518.9799995422363 s-3.58,0.81 -3.58,1.46 s-0.81,6.55 3.12,9 s3.5300000000000002,-3.38 3.5300000000000002,-3.38 S818.5600003051758,520.8799995422363 818.8700003051758,518.9799995422363 z" fill="#575988" id="svg_122" class=""/><circle cx="822.8599853515625" cy="530.75" r="5.340000152587891" fill="#e4aab4" id="svg_123"/><circle cx="822.8599853515625" cy="530.75" r="4.579999923706055" fill="#dce6f2" id="svg_124"/><path d="M802.0600003051758,532.8199995422364 s11.29,9.36 25.79,3.42 v4.54 s-9.67,6.65 -18.43,2.62 S802.0600003051758,532.8199995422364 802.0600003051758,532.8199995422364 z" opacity="0.1" id="svg_125"/><path d="M802.0600003051758,531.6099995422363 s11.29,9.37 25.79,3.42 v4.54 s-9.67,6.65 -18.43,2.62 S802.0600003051758,531.6099995422363 802.0600003051758,531.6099995422363 z" opacity="0.1" id="svg_126"/><path d="M802.0600003051758,531.0039389777183 s11.29,9.37 25.79,3.42 v4.54 s-9.67,6.65 -18.43,2.62 S802.0600003051758,531.0039389777183 802.0600003051758,531.0039389777183 z" fill="#0e447a" id="svg_127" class="" fill-opacity="1"/><path d="M766.5900003051757,699.9199995422364 s15.12,2.7800000000000002 17.33,3.38 s-0.6000000000000001,1.6600000000000001 -0.6000000000000001,1.6600000000000001 S769.5200003051758,702.4899995422363 766.5900003051757,699.9199995422364 z" opacity="0.1" id="svg_129"/><path d="M766.2400003051757,691.9099995422363 c0.25,0 10.28,-2.8200000000000003 12.44,-7.65 " opacity="0.1" id="svg_130"/><path d="M780.8700003051758,634.0799995422364 s4.06,5.34 6.68,5.19 S783.2500003051758,633.8799995422363 780.8700003051758,634.0799995422364 z" opacity="0.1" id="svg_131"/><path d="M783.1200003051758,642.9799995422363 s1.71,3.77 4.23,2.56 " opacity="0.1" id="svg_132"/><path d="M792.6800003051758,559.9799995422363 l10.72,28.27 s1.51,-18.19 -1.6800000000000002,-23.63 A9.43,9.43 0 0 0 792.6800003051758,559.9799995422363 z" opacity="0.05" id="svg_133" class=""/><g opacity="0.1" id="svg_134"><path d="M819.0200003051758,335.9799995422363 l-0.09000000000000002,-0.41000000000000003 l-1.7200000000000002,-0.46 l0.19000000000000003,0.8400000000000001 A14.6,14.6 0 0 0 819.0200003051758,335.9799995422363 z" id="svg_135"/><path d="M814.2900003051758,342.7999995422363 l0.18000000000000002,-0.16000000000000003 a3.62,3.62 0 0 0 1,-3.68 a4.85,4.85 0 0 0 -0.8600000000000001,-1.37 a14.13,14.13 0 0 1 -2.48,-0.7300000000000001 c-0.1,1.51 1.6,2.49 2.13,3.91 A3,3 0 0 1 814.2900003051758,342.7999995422363 z" id="svg_136"/><path d="M842.8800003051758,389.26999954223635 a10,10 0 0 1 -4.05,-5 c-0.8500000000000001,-2 -1.3800000000000001,-4.16 -2.25,-6.16 a19,19 0 0 0 -4,-5.890000000000001 a2.62,2.62 0 0 0 -1.07,-0.7400000000000001 a2.92,2.92 0 0 0 -2.2,0.6100000000000001 a10.11,10.11 0 0 1 -3.35,1.47 a3.58,3.58 0 0 1 -3.36,-1 c-0.9400000000000001,-1.12 -0.81,-2.77 -0.54,-4.2 c0.5900000000000001,-3.12 1.57,-6.21 1.58,-9.38 s-1.21,-6.61 -4,-8.18 c-2.44,-1.3900000000000001 -5.47,-1 -8.18,-1.78 a10.53,10.53 0 0 1 -3.81,-1.9500000000000002 a1.8,1.8 0 0 1 -0.2,-0.19000000000000003 a5,5 0 0 0 -0.6600000000000001,0.31000000000000005 c-0.44000000000000006,0.23 -0.91,0.6500000000000001 -0.79,1.13 a1.22,1.22 0 0 0 0.45,0.56 a10.41,10.41 0 0 0 3.8,1.9500000000000002 c2.71,0.7400000000000001 5.74,0.39000000000000007 8.18,1.78 c2.7600000000000002,1.57 4,5 4,8.18 s-1,6.26 -1.58,9.38 c-0.27,1.44 -0.4,3.08 0.54,4.2 a3.58,3.58 0 0 0 3.36,1 a10,10 0 0 0 3.35,-1.46 a2.89,2.89 0 0 1 2.2,-0.6200000000000001 a2.6500000000000004,2.6500000000000004 0 0 1 1.07,0.7400000000000001 a19.21,19.21 0 0 1 4,5.890000000000001 c0.8800000000000001,2 1.4,4.15 2.26,6.17 a10,10 0 0 0 4,5 c1.9100000000000001,1.06 4.58,1 6,-0.6400000000000001 a4.7,4.7 0 0 0 0.9,-1.52 A5.16,5.16 0 0 1 842.8800003051758,389.26999954223635 z" id="svg_137"/><path d="M851.5200003051758,381.57999954223635 c1.51,-1.9100000000000001 3.5,-3.54 4.92,-5.54 c0.28,-0.4 0.54,-0.8200000000000001 0.78,-1.24 C855.3900003051758,377.1299995422363 852.8800003051758,378.9799995422363 851.5200003051758,381.57999954223635 z" id="svg_138"/></g></g></svg>